<svg xmlns="http://www.w3.org/2000/svg" width="348" height="43.793" viewBox="0 0 348 43.793">
    <defs>
        <style>
            .prefix__cls-1{fill:#fff}
        </style>
    </defs>
    <g id="prefix__boat-fuji-logo" transform="translate(-32.3 -83.02)">
        <g id="prefix__Group_1" data-name="Group 1" transform="translate(32.3 83.02)">
            <path id="prefix__Path_1" d="M56.76 96.959a7.839 7.839 0 0 0 .89-3.647 7.921 7.921 0 0 0-7.912-7.912H32.3v28h18.8a9.192 9.192 0 0 0 5.66-16.441zm-6.98-1.987H38.547v-3.321h11.234a1.661 1.661 0 0 1 0 3.321zm1.32 12.143l-.759.038h-11.8v-5.933H51.1a2.947 2.947 0 0 1 0 5.895z" class="prefix__cls-1" data-name="Path 1" transform="translate(-32.3 -84.487)"/>
            <path id="prefix__Path_2" d="M123.792 85.4a14 14 0 1 0 14 14 14.019 14.019 0 0 0-14-14zm0 21.753a7.751 7.751 0 1 1 7.751-7.751 7.761 7.761 0 0 1-7.751 7.751z" class="prefix__cls-1" data-name="Path 2" transform="translate(-80.072 -84.487)"/>
            <path id="prefix__Path_3" d="M178.948 106.1l-2.988 5.837h7.007l7.743-15.164 7.743 15.164h7.007L190.71 83.02z" class="prefix__cls-1" data-name="Path 3" transform="translate(-120.864 -83.02)"/>
            <path id="prefix__Path_4" d="M237.55 85.5v6.251h10.857V113.5h6.251V91.751h10.857V85.5z" class="prefix__cls-1" data-name="Path 4" transform="translate(-158.834 -84.549)"/>
        </g>
        <g id="prefix__Group_2" data-name="Group 2" transform="translate(146.518 83.02)">
            <path id="prefix__Path_5" d="M366 83.02v5.193h-26.2c-1.795 0-3.279 1.2-3.279 2.658v2.7h23.064v5.193h-23.11V112.1h-6.355V90.874c0-4.318 4.307-7.851 9.638-7.851H366z" class="prefix__cls-1" data-name="Path 5" transform="translate(-330.12 -83.02)"/>
            <path id="prefix__Path_6" d="M472.762 83.02v14.539c0 8.015-8.046 14.539-17.941 14.539s-17.941-6.52-17.941-14.539V83.02h6.408v14.539c0 5.151 5.177 9.346 11.532 9.346s11.532-4.2 11.532-9.346V83.02z" class="prefix__cls-1" data-name="Path 6" transform="translate(-395.936 -83.02)"/>
            <path id="prefix__Path_7" d="M579.672 83.02v21.227c0 4.318-4.357 7.808-9.687 7.808h-16.507c-5.331 0-9.688-3.49-9.688-7.808v-5.442h6.41v5.442c0 1.454 1.488 2.658 3.279 2.658h16.506c1.795 0 3.279-1.2 3.279-2.658V83.02z" class="prefix__cls-1" data-name="Path 7" transform="translate(-461.845 -83.02)"/>
            <path id="prefix__Path_8" d="M650.71 112.094V83.02h6.409v29.08h-6.409z" class="prefix__cls-1" data-name="Path 8" transform="translate(-527.76 -83.02)"/>
        </g>
        <g id="prefix__Group_3" data-name="Group 3" transform="translate(161.011 105.153)">
            <path id="prefix__Path_9" d="M389.7 164.127l1.473 7.958a.589.589 0 0 0 .917.376l2-1.4 2.876 4.111a.591.591 0 0 0 .821.146l.268-.188.288-.2a.591.591 0 0 0 .146-.821l-2.876-4.111 1.979-1.384a.588.588 0 0 0-.038-.989l-6.976-4.107a.586.586 0 0 0-.878.609z" class="prefix__cls-1" data-name="Path 9" transform="translate(-381.339 -154.723)"/>
            <path id="prefix__Path_10" d="M380.777 157.438a3.446 3.446 0 1 1 3.873-3.417 3.587 3.587 0 0 1-.088.767l1.312.771a4.864 4.864 0 0 0 .249-1.542 4.917 4.917 0 1 0-5.066 4.913z" class="prefix__cls-1" data-name="Path 10" transform="translate(-373.076 -145.89)"/>
            <path id="prefix__Path_11" d="M376.213 155.522h-.173a6.666 6.666 0 1 1 6.2-4.222l1.281.756a8.133 8.133 0 1 0-7.478 4.94c.15 0 .3 0 .445-.012z" class="prefix__cls-1" data-name="Path 11" transform="translate(-367.91 -140.73)"/>
        </g>
        <g id="prefix__Group_5" data-name="Group 5" transform="translate(33.213 115.319)">
            <g id="prefix__Group_4" data-name="Group 4">
                <path id="prefix__Path_12" d="M36.962 172.977a3.922 3.922 0 0 0 4.107 3.689h4.107v-2.2h-4.107v-2.048h6.389v6.293h-6.389c-3.524 0-6.389-2.573-6.389-5.737s2.865-5.737 6.389-5.737h6.389v2.048h-6.389a3.925 3.925 0 0 0-4.107 3.692z" class="prefix__cls-1" data-name="Path 12" transform="translate(-34.68 -167.24)"/>
                <path id="prefix__Path_13" d="M84.359 172.977c0 3.164-2.865 5.737-6.389 5.737s-6.389-2.573-6.389-5.737 2.865-5.737 6.389-5.737 6.389 2.573 6.389 5.737zm-2.286 0a4.131 4.131 0 1 0-4.107 3.689 3.922 3.922 0 0 0 4.107-3.689z" class="prefix__cls-1" data-name="Path 13" transform="translate(-57.428 -167.24)"/>
                <path id="prefix__Path_14" d="M144.423 175.06a3.883 3.883 0 0 1-4.073 3.655h-8.71V167.24h8.054a3.3 3.3 0 0 1 3.452 3.1 2.808 2.808 0 0 1-.548 1.672 3.576 3.576 0 0 1 1.825 3.048zm-10.5-3.67h5.787a1.057 1.057 0 1 0 0-2.1h-5.787zm6.428 5.262a1.616 1.616 0 1 0 0-3.214h-6.428v3.229h6.428z" class="prefix__cls-1" data-name="Path 14" transform="translate(-94.455 -167.24)"/>
                <path id="prefix__Path_15" d="M180.129 172.977c0 3.164-2.865 5.737-6.389 5.737s-6.389-2.573-6.389-5.737 2.865-5.737 6.389-5.737 6.389 2.573 6.389 5.737zm-2.282 0a4.131 4.131 0 1 0-4.107 3.689 3.922 3.922 0 0 0 4.107-3.689z" class="prefix__cls-1" data-name="Path 15" transform="translate(-116.469 -167.24)"/>
                <path id="prefix__Path_16" d="M211.229 178.715h-2.558l-1.17-2.048-2.792-4.917-2.792 4.917-1.17 2.048h-2.557l1.17-2.048 5.35-9.427 5.35 9.427z" class="prefix__cls-1" data-name="Path 16" transform="translate(-135.482 -167.24)"/>
                <path id="prefix__Path_17" d="M238.38 167.29v2.048h-5.239v9.427h-2.282v-9.427h-5.239v-2.048z" class="prefix__cls-1" data-name="Path 17" transform="translate(-152.392 -167.271)"/>
                <path id="prefix__Path_18" d="M263.7 178.715V167.24h2.282v11.475z" class="prefix__cls-1" data-name="Path 18" transform="translate(-175.868 -167.24)"/>
                <path id="prefix__Path_19" d="M287.189 167.265v11.475l-2.282-1.572-8.215-5.688v7.26h-2.282V167.3l2.282 1.572 8.215 5.688v-7.31z" class="prefix__cls-1" data-name="Path 19" transform="translate(-182.47 -167.246)"/>
                <path id="prefix__Path_20" d="M314.772 172.977a3.922 3.922 0 0 0 4.107 3.689h4.107v-2.2h-4.107v-2.048h6.389v6.293h-6.389c-3.525 0-6.389-2.573-6.389-5.737s2.865-5.737 6.389-5.737h6.389v2.048h-6.389a3.925 3.925 0 0 0-4.107 3.692z" class="prefix__cls-1" data-name="Path 20" transform="translate(-205.946 -167.24)"/>
            </g>
        </g>
        <g id="prefix__Group_7" data-name="Group 7" transform="translate(184.171 115.319)">
            <g id="prefix__Group_6" data-name="Group 6">
                <path id="prefix__Path_21" d="M439.771 167.24v11.475h-2.048v-5.262h-7.375v5.262H428.3V167.24h2.048v4.16h7.375v-4.16z" class="prefix__cls-1" data-name="Path 21" transform="translate(-428.3 -167.24)"/>
                <path id="prefix__Path_22" d="M472.515 178.715h-2.293l-1.051-2.048-2.508-4.917-2.508 4.917-1.051 2.048h-2.294l1.051-2.048 4.8-9.427 4.8 9.427z" class="prefix__cls-1" data-name="Path 22" transform="translate(-448.342 -167.24)"/>
                <path id="prefix__Path_23" d="M494.735 167.24l-1.051 2.048-4.8 9.427-4.8-9.427-1.051-2.048h2.293l1.051 2.048 2.508 4.917 2.508-4.917 1.051-2.048z" class="prefix__cls-1" data-name="Path 23" transform="translate(-462.04 -167.24)"/>
                <path id="prefix__Path_24" d="M516.353 170.339v1.061h7.375v2.048h-7.375v2.163a1.057 1.057 0 0 0 1.051 1.051h8.376v2.048h-8.38a3.092 3.092 0 0 1-3.083-3.1v-5.277a3.092 3.092 0 0 1 3.083-3.1h8.376v2.048H517.4a1.063 1.063 0 0 0-1.047 1.058z" class="prefix__cls-1" data-name="Path 24" transform="translate(-481.33 -167.24)"/>
                <path id="prefix__Path_25" d="M580.789 167.24v2.048h-8.376a1.057 1.057 0 0 0-1.051 1.051v1.061h7.375v2.048h-7.394v5.262h-2.033v-8.376a3.092 3.092 0 0 1 3.083-3.1z" class="prefix__cls-1" data-name="Path 25" transform="translate(-515.231 -167.24)"/>
                <path id="prefix__Path_26" d="M614.945 167.24v5.737a5.737 5.737 0 1 1-11.475 0v-5.737h2.048v5.737a3.689 3.689 0 0 0 7.379 0v-5.737z" class="prefix__cls-1" data-name="Path 26" transform="translate(-536.29 -167.24)"/>
                <path id="prefix__Path_27" d="M649.135 167.259v11.475l-2.048-1.572-7.379-5.691v7.26h-2.048V167.29l2.048 1.572 7.375 5.687v-7.31z" class="prefix__cls-1" data-name="Path 27" transform="translate(-557.368 -167.24)"/>
            </g>
        </g>
        <g id="prefix__Group_9" data-name="Group 9" transform="translate(279.076 83.949)">
            <path id="prefix__Path_28" d="M748.4 101.431c6.781-.337 14.784-.38 21.707-.909-3.551-1.649-5.285-5.58-10.593-4.733-2.527.4-12.679 1.73-15.057 2.65 3.508-.313 7.616 1.125 3.943 2.992z" class="prefix__cls-1" data-name="Path 28" transform="translate(-718.113 -91.749)"/>
            <path id="prefix__Path_29" d="M730.881 154.125c-20.441-10.343-50.931 4.219-50.931 4.219 15.747-5.7 34.6-4.418 50.923 4.5 25.162 13.753 48.695-2.938 48.695-2.938-9.941 4.535-27.291 5.049-48.687-5.781z" class="prefix__cls-1" data-name="Path 29" transform="translate(-678.343 -125.496)"/>
            <path id="prefix__Path_30" d="M679.95 174.467c27.559-7.8 48.9 1.523 48.9 1.523-23.15-16.69-48.9-1.523-48.9-1.523z" class="prefix__cls-1" data-name="Path 30" transform="translate(-678.343 -136.434)"/>
            <g id="prefix__Group_8" data-name="Group 8">
                <path id="prefix__Path_31" d="M694.982 106.2c-6.09 1.588-15.344 4.805-19.222 8.418 9.262-3.931 23.529-7.409 42.907-7.287-3.785-.548-12.921-1.078-17-1.281 22.071-2.719 46.743-6.5 67.767-10.106-1.9.874-3.666 3.808-5.542 4.525-2.075.794-8.042 1.557-10.62 2.025-7.609 1.384-25.73 4.288-32.821 5.262a7.54 7.54 0 0 1 2.83.859c9.408-1.327 31.206-4.836 40.15-6.558-1.377 2.251-4.433 2.385-7.766 3-5.4.989-23.858 4.1-29.178 5.2a16.465 16.465 0 0 1 4.513 1.777s12.088-2.3 13.883-2.6c5.342-.871 14.014-2.048 18.62-3.011 4.782-4.479 5.68-4.506 10-13.162-.832.092-.94.065-1.657.1.568-.7 1.112-1.661 1.764-2.508.583-.752.525-.836 1.526-2.228-9.879.234-19.874.614-30.351 1.561 3.126.18 6.148.307 9.7.456-.721.828-2.052 1.469-4.3 1.335-2.52-.15-5.059-.334-7.394-.449a30.51 30.51 0 0 1-3.946-.073 22.28 22.28 0 0 1-3.674-1.538c-1.243-.529-2.585-1.039-3.8-1.53-2.458-.993-5.177-2.738-7.6-2.926a29.627 29.627 0 0 0-5.078.548c-10.259 1.208-20.3 2.612-29.139 5.139-1.216.349-10.589 2.286-12.18 4.7 3.912-.077 18.666-2.853 22.451-3.26-3.624-.192-4.894-.031-8.468-.276a241.093 241.093 0 0 1 23.808-4.441c2.884-.372 5.971-1.266 8.591-.963 1.86.215 2.7 1.085 4.571 1.611a28.391 28.391 0 0 0-5.246.483c2.148.548 5.48 4.844 7.7 5.085 2.4.257 4.89-1.131 7.245-1.381a32.264 32.264 0 0 1 5.143.238c5.22.33 10.612.564 15.321.982-21.488 3.095-45.6 3.954-65.527 8.372 2.711-3.325 7.291-5.066 11.785-6.873-2.217.265-4.629 1-6.328 1.3.058-.882.61-1.99.441-2.662-1.757 1.76-3.8 3.256-6.286 5.312a33.144 33.144 0 0 1-4.192 2.907c-1.078.671-3.444 1.921-4.706 2.738 21.987-3.36 62.206-7.989 84.871-10.363-12.986 2.063-40.089 6.236-53.88 7.966a153.772 153.772 0 0 0-19.686 3.577zm61.738-15.669l1.338-.042-1.933 2.278-2.359-.376zm.736 2.37l1.63-2.443 1.937-.061-1.891 2.738zm2.654.364l1.937-2.907 1.795-.058-2.094 3.037h-1.078zm4.756-3l1.8-.058-2.152 3.122h-1.691zm2.815-.088l1.8-.058-2.209 3.2h-1.691zm.66 3.141l2.159-3.228 2.535-.081-2.83 3.31z" class="prefix__cls-1" data-name="Path 31" transform="translate(-675.76 -85.442)"/>
                <ellipse id="prefix__Ellipse_1" cx="2.24" cy=".802" class="prefix__cls-1" data-name="Ellipse 1" rx="2.24" ry=".802" transform="rotate(-6.915 173.268 -459.154)"/>
                <ellipse id="prefix__Ellipse_2" cx="2.24" cy=".802" class="prefix__cls-1" data-name="Ellipse 2" rx="2.24" ry=".802" transform="rotate(-6.915 168.845 -502.52)"/>
                <path id="prefix__Path_32" d="M853.817 127.409c1.227-.15 2.182-.625 2.128-1.066s-1.093-.675-2.32-.525-2.182.625-2.129 1.066 1.09.675 2.321.525z" class="prefix__cls-1" data-name="Path 32" transform="translate(-784.098 -110.305)"/>
                <ellipse id="prefix__Ellipse_3" cx="2.24" cy=".802" class="prefix__cls-1" data-name="Ellipse 3" rx="2.24" ry=".802" transform="rotate(-6.915 159.423 -595.401)"/>
                <ellipse id="prefix__Ellipse_4" cx="2.24" cy=".802" class="prefix__cls-1" data-name="Ellipse 4" rx="2.24" ry=".802" transform="rotate(-6.915 154.712 -641.841)"/>
            </g>
            <path id="prefix__Path_33" d="M773.1 97.16l2.723 5.032.671-.019-2.646-4.882z" class="prefix__cls-1" data-name="Path 33" transform="translate(-735.769 -92.666)"/>
        </g>
    </g>
</svg>
